# xmcd
#
# Track frame offsets:
#	150
#	17670
#	35611
#	50454
#	62536
#	78410
#	93963
#	107723
#	132278
#	145585
#	158585
#	173700
#	186158
#	204215
#	213742
#	230874
#	246309
#	260454
#	283012
#	296971
#	314810
#
# Disc length: 4431 seconds
#
# Revision: 0
# Processed by: cddbd v1.5.1PL0 Copyright (c) Steve Scherf et al.
# Submitted via: dBpowerAMP V4.0
#
DISCID=39114d15
DTITLE=Camilo Sesto - Grandes Éxitos
DYEAR=1900
DGENRE=Blues
TTITLE0=Perdóname
TTITLE1=Quieres ser mi amante
TTITLE2=Jamás
TTITLE3=Piel de angel
TTITLE4=Amor no me ignores
TTITLE5=Vivir así es morir de amor
TTITLE6=Con el viento a tu favor
TTITLE7=El amor de mi vida
TTITLE8=Algo de mi
TTITLE9=Quien será
TTITLE10=Si tú te vas
TTITLE11=Melina
TTITLE12=Corazón Encadenado (duo Lany Hall)
TTITLE13=Celos
TTITLE14=Enamórate de mi
TTITLE15=Mi mundo tú
TTITLE16=Amor de mujer
TTITLE17=Callados (duo Ángela carrasco)
TTITLE18=Amor libre
TTITLE19=Un amor no muere asi como asi
TTITLE20=La culpa ha sido mia
EXTD=
EXTT0=
EXTT1=
EXTT2=
EXTT3=
EXTT4=
EXTT5=
EXTT6=
EXTT7=
EXTT8=
EXTT9=
EXTT10=
EXTT11=
EXTT12=
EXTT13=
EXTT14=
EXTT15=
EXTT16=
EXTT17=
EXTT18=
EXTT19=
EXTT20=
PLAYORDER=
